<svg width="24" height="24" viewBox="0 0 24 24" fill="none" xmlns="http://www.w3.org/2000/svg">
<path d="M2.5 11.6344L1.80364 11.3558C1.73212 11.5346 1.73212 11.7341 1.80364 11.9129L2.5 11.6344ZM21.5 11.6344L22.1964 11.9129C22.2679 11.7341 22.2679 11.5346 22.1964 11.3558L21.5 11.6344ZM12 17.6701C8.88611 17.6701 6.69881 16.1211 5.26282 14.5255C4.5443 13.7272 4.02342 12.9262 3.68265 12.3249C3.51269 12.025 3.3887 11.7767 3.30828 11.6061C3.26809 11.5209 3.23887 11.4552 3.22031 11.4124C3.21103 11.391 3.20441 11.3753 3.20043 11.3657C3.19844 11.3609 3.19711 11.3577 3.19643 11.356C3.1961 11.3552 3.19592 11.3547 3.19591 11.3547C3.1959 11.3547 3.19594 11.3548 3.19601 11.355C3.19605 11.3551 3.19614 11.3553 3.19615 11.3553C3.19625 11.3556 3.19636 11.3558 2.5 11.6344C1.80364 11.9129 1.80377 11.9132 1.80391 11.9136C1.80397 11.9137 1.80412 11.9141 1.80424 11.9144C1.80448 11.915 1.80476 11.9157 1.80509 11.9165C1.80574 11.9181 1.80656 11.9202 1.80755 11.9226C1.80953 11.9274 1.8122 11.9339 1.81555 11.942C1.82226 11.9581 1.83172 11.9805 1.84397 12.0088C1.86848 12.0653 1.9042 12.1455 1.95149 12.2458C2.04601 12.4463 2.18709 12.7282 2.37761 13.0644C2.75782 13.7354 3.33962 14.6309 4.14788 15.529C5.76544 17.3263 8.32814 19.1701 12 19.1701V17.6701ZM2.5 11.6344C3.19636 11.9129 3.19625 11.9132 3.19615 11.9134C3.19614 11.9135 3.19605 11.9137 3.19601 11.9138C3.19594 11.914 3.1959 11.9141 3.19591 11.914C3.19592 11.914 3.1961 11.9136 3.19643 11.9127C3.19711 11.9111 3.19844 11.9078 3.20043 11.9031C3.20441 11.8935 3.21103 11.8778 3.22031 11.8564C3.23887 11.8135 3.26809 11.7479 3.30828 11.6626C3.3887 11.492 3.51269 11.2438 3.68265 10.9439C4.02342 10.3425 4.5443 9.5416 5.26282 8.74324C6.69881 7.14769 8.88611 5.59866 12 5.59866V4.09866C8.32814 4.09866 5.76544 5.9425 4.14788 7.7398C3.33962 8.63787 2.75782 9.53339 2.37761 10.2044C2.18709 10.5406 2.04601 10.8225 1.95149 11.023C1.9042 11.1233 1.86848 11.2034 1.84397 11.26C1.83172 11.2882 1.82226 11.3107 1.81555 11.3268C1.8122 11.3348 1.80953 11.3413 1.80755 11.3462C1.80656 11.3486 1.80574 11.3506 1.80509 11.3522C1.80476 11.353 1.80448 11.3538 1.80424 11.3544C1.80412 11.3547 1.80397 11.355 1.80391 11.3552C1.80377 11.3555 1.80364 11.3558 2.5 11.6344ZM12 5.59866C15.1139 5.59866 17.3012 7.14769 18.7372 8.74325C19.4557 9.54161 19.9766 10.3425 20.3173 10.9439C20.4873 11.2438 20.6113 11.492 20.6917 11.6626C20.7319 11.7479 20.7611 11.8135 20.7797 11.8564C20.789 11.8778 20.7956 11.8935 20.7996 11.9031C20.8016 11.9078 20.8029 11.9111 20.8036 11.9127C20.8039 11.9136 20.8041 11.914 20.8041 11.914C20.8041 11.9141 20.8041 11.914 20.804 11.9138C20.804 11.9137 20.8039 11.9135 20.8038 11.9134C20.8037 11.9132 20.8036 11.9129 21.5 11.6344C22.1964 11.3558 22.1962 11.3555 22.1961 11.3552C22.196 11.355 22.1959 11.3546 22.1958 11.3543C22.1955 11.3537 22.1952 11.353 22.1949 11.3522C22.1943 11.3506 22.1934 11.3486 22.1924 11.3462C22.1905 11.3413 22.1878 11.3348 22.1844 11.3268C22.1777 11.3107 22.1683 11.2882 22.156 11.26C22.1315 11.2034 22.0958 11.1233 22.0485 11.023C21.954 10.8225 21.8129 10.5406 21.6224 10.2043C21.2422 9.53339 20.6604 8.63786 19.8521 7.7398C18.2345 5.9425 15.6718 4.09866 12 4.09866V5.59866ZM21.5 11.6344C20.8036 11.3558 20.8037 11.3556 20.8038 11.3553C20.8039 11.3553 20.804 11.3551 20.804 11.355C20.8041 11.3548 20.8041 11.3547 20.8041 11.3547C20.8041 11.3547 20.8039 11.3552 20.8036 11.356C20.8029 11.3577 20.8016 11.3609 20.7996 11.3657C20.7956 11.3753 20.789 11.391 20.7797 11.4124C20.7611 11.4552 20.7319 11.5209 20.6917 11.6061C20.6113 11.7767 20.4873 12.025 20.3173 12.3249C19.9766 12.9262 19.4557 13.7271 18.7372 14.5255C17.3012 16.1211 15.1139 17.6701 12 17.6701V19.1701C15.6718 19.1701 18.2345 17.3263 19.8521 15.529C20.6604 14.6309 21.2422 13.7354 21.6224 13.0644C21.8129 12.7282 21.954 12.4463 22.0485 12.2458C22.0958 12.1455 22.1315 12.0653 22.156 12.0088C22.1683 11.9805 22.1777 11.9581 22.1844 11.942C22.1878 11.9339 22.1905 11.9274 22.1924 11.9226C22.1934 11.9202 22.1943 11.9181 22.1949 11.9165C22.1952 11.9157 22.1955 11.915 22.1958 11.9144C22.1959 11.9141 22.196 11.9137 22.1961 11.9136C22.1962 11.9132 22.1964 11.9129 21.5 11.6344ZM12 13.5987C10.9152 13.5987 10.0357 12.7192 10.0357 11.6344H8.53571C8.53571 13.5477 10.0867 15.0987 12 15.0987V13.5987ZM13.9643 11.6344C13.9643 12.7192 13.0848 13.5987 12 13.5987V15.0987C13.9133 15.0987 15.4643 13.5477 15.4643 11.6344H13.9643ZM12 9.67009C13.0848 9.67009 13.9643 10.5495 13.9643 11.6344H15.4643C15.4643 9.72111 13.9133 8.17009 12 8.17009V9.67009ZM12 8.17009C10.0867 8.17009 8.53571 9.72111 8.53571 11.6344H10.0357C10.0357 10.5495 10.9152 9.67009 12 9.67009V8.17009Z" fill="#172765"/>
<line x1="5.80005" y1="17.995" x2="19.7948" y2="4.00028" stroke="white" stroke-width="3" stroke-linecap="round" stroke-linejoin="round"/>
<line x1="5.21948" y1="18.7876" x2="19.1588" y2="4.84822" stroke="#172765" stroke-width="1.5" stroke-linecap="round" stroke-linejoin="round"/>
</svg>
